<svg id="svg" version="1.1" xmlns="http://www.w3.org/2000/svg" xmlns:xlink="http://www.w3.org/1999/xlink" width="400" height="400" viewBox="0, 0, 400,400"><g id="svgg"><path id="path0" d="M146.500 89.904 C 135.330 91.526,126.698 99.288,123.976 110.156 C 122.912 114.405,122.852 208.947,123.910 213.546 C 126.785 226.038,134.468 233.153,146.817 234.758 C 153.214 235.590,252.179 235.524,255.684 234.686 C 267.235 231.925,273.510 226.358,275.629 216.992 C 276.444 213.388,277.286 118.528,276.545 113.726 C 274.576 100.965,266.678 92.258,255.469 90.492 C 251.023 89.792,150.993 89.252,146.500 89.904 M250.469 101.994 C 257.123 103.382,262.681 108.497,264.230 114.658 C 265.147 118.307,264.938 205.133,263.998 210.742 C 262.963 216.924,259.695 220.277,252.913 222.115 C 249.499 223.040,152.063 223.205,147.290 222.294 C 140.594 221.016,136.431 216.555,135.567 209.732 C 134.979 205.089,134.970 118.259,135.557 115.820 C 137.033 109.688,141.013 104.714,145.913 102.876 C 147.761 102.182,149.974 102.147,193.457 102.116 C 218.539 102.099,239.179 101.967,239.322 101.823 C 239.749 101.397,248.229 101.527,250.469 101.994 M233.280 127.047 C 224.883 135.050,218.638 141.122,212.689 147.067 C 206.474 153.279,204.557 155.270,193.795 166.699 C 190.710 169.976,187.949 172.656,187.660 172.656 C 187.370 172.656,182.569 168.174,176.991 162.695 C 165.546 151.455,165.616 151.497,162.090 153.723 C 159.538 155.334,154.791 160.087,153.905 161.918 L 153.082 163.618 153.872 165.166 C 154.347 166.099,156.958 168.815,160.436 171.995 C 166.263 177.323,172.270 183.324,179.670 191.211 C 187.588 199.649,184.110 201.504,211.061 174.468 C 223.347 162.145,236.686 148.952,240.703 145.151 C 251.290 135.136,251.686 133.952,246.213 128.684 C 239.692 122.409,238.328 122.236,233.280 127.047 M44.638 152.344 C 44.638 153.311,44.714 153.706,44.807 153.223 C 44.900 152.739,44.900 151.948,44.807 151.465 C 44.714 150.981,44.638 151.377,44.638 152.344 M44.643 160.742 C 44.646 161.816,44.722 162.209,44.812 161.616 C 44.901 161.022,44.899 160.143,44.806 159.663 C 44.714 159.182,44.640 159.668,44.643 160.742 M44.668 221.484 C 44.668 223.311,44.735 224.058,44.817 223.145 C 44.900 222.231,44.900 220.737,44.817 219.824 C 44.735 218.911,44.668 219.658,44.668 221.484 M204.812 253.406 L 203.570 253.561 203.445 257.152 C 203.176 264.903,203.339 301.125,203.645 301.432 C 203.823 301.611,205.801 301.818,208.039 301.891 L 212.109 302.024 212.109 295.948 L 212.109 289.871 213.322 288.490 C 215.089 286.477,215.076 286.468,220.931 294.302 L 226.305 301.494 230.748 301.771 C 233.191 301.924,235.267 301.972,235.361 301.879 C 235.517 301.722,232.436 297.160,228.106 291.135 C 224.186 285.681,220.703 280.543,220.703 280.213 C 220.703 280.020,223.603 276.967,227.148 273.427 C 230.692 269.888,233.593 266.860,233.593 266.699 C 233.593 266.538,231.498 266.406,228.936 266.406 L 224.278 266.406 219.870 271.191 C 214.859 276.632,212.556 278.906,212.061 278.906 C 211.872 278.906,211.719 273.242,211.719 266.262 L 211.719 253.618 210.254 253.376 C 208.742 253.126,206.970 253.135,204.812 253.406 M97.098 254.520 C 96.652 254.967,96.484 255.916,96.484 258.004 C 96.484 262.158,96.443 262.109,99.944 262.111 C 101.586 262.112,104.906 262.227,107.321 262.366 L 111.712 262.619 111.813 282.188 L 111.914 301.758 116.309 301.868 L 120.703 301.979 120.703 281.849 L 120.703 261.719 128.320 261.719 L 135.938 261.719 135.938 258.217 C 135.938 255.154,135.843 254.664,135.182 254.311 C 133.806 253.574,97.846 253.772,97.098 254.520 M142.978 266.225 C 138.051 267.609,134.375 271.419,134.375 275.141 C 134.375 277.122,140.706 277.322,141.992 275.382 C 145.639 269.880,154.161 272.548,154.809 279.395 C 155.048 281.915,155.150 281.853,152.085 281.055 C 140.410 278.013,129.886 285.390,132.597 294.715 C 134.823 302.373,145.690 304.788,152.995 299.248 L 155.013 297.717 155.280 299.654 L 155.546 301.590 159.316 301.479 L 163.086 301.367 162.967 289.453 C 162.812 273.928,162.352 271.726,158.651 268.795 C 155.046 265.940,148.067 264.796,142.978 266.225 M178.320 266.001 C 166.811 268.510,164.715 281.967,175.218 285.917 C 176.495 286.397,179.543 287.134,181.991 287.555 C 188.165 288.617,189.453 289.403,189.453 292.109 C 189.453 297.439,178.945 297.914,176.921 292.676 C 176.599 291.841,176.375 291.797,172.427 291.797 L 168.272 291.797 168.540 293.262 C 170.935 306.355,196.099 305.608,197.911 292.390 C 198.736 286.372,194.927 283.063,184.428 280.677 C 177.883 279.189,176.243 278.117,176.718 275.634 C 177.527 271.401,184.466 270.695,188.235 274.461 L 189.947 276.172 193.215 276.172 L 196.484 276.172 196.484 274.472 C 196.484 269.033,186.267 264.268,178.320 266.001 M246.922 266.041 C 239.502 267.359,235.089 273.270,236.893 279.476 C 238.331 284.424,241.781 286.470,251.113 287.910 C 256.969 288.814,259.369 291.354,257.240 294.393 C 254.648 298.094,244.531 296.483,244.531 292.369 C 244.531 291.903,243.772 291.797,240.430 291.797 C 235.751 291.797,235.694 291.854,236.931 295.360 C 240.326 304.982,259.864 305.533,264.971 296.150 C 269.111 288.543,264.164 282.792,251.649 280.666 C 246.028 279.711,244.531 278.794,244.531 276.307 C 244.531 270.973,254.234 269.968,256.852 275.031 L 257.442 276.172 261.390 276.172 L 265.337 276.172 265.124 274.581 C 264.349 268.800,255.298 264.554,246.922 266.041 M266.986 267.139 C 267.123 267.703,268.087 270.010,269.127 272.266 C 270.167 274.521,271.720 278.037,272.577 280.078 C 273.434 282.119,275.757 287.656,277.740 292.383 C 279.722 297.109,281.498 301.144,281.687 301.348 C 282.293 302.002,282.056 304.673,281.259 306.168 C 279.499 309.470,277.359 310.938,274.306 310.938 L 272.158 310.938 272.427 313.574 C 272.767 316.893,272.866 316.980,276.280 316.948 C 283.057 316.885,286.372 312.607,292.138 296.484 C 296.517 284.240,296.683 283.819,301.377 273.152 C 302.873 269.752,303.893 266.934,303.756 266.577 C 303.513 265.945,295.920 266.094,295.253 266.744 C 294.702 267.280,288.902 282.148,287.268 287.212 C 285.926 291.371,285.839 291.357,284.197 286.712 C 282.807 282.776,278.780 272.875,276.955 268.904 C 275.636 266.034,275.477 265.962,270.595 266.046 L 266.737 266.113 266.986 267.139 M151.719 286.873 C 156.887 289.032,153.257 295.901,146.693 296.383 C 140.579 296.832,137.745 289.515,143.092 287.087 C 145.081 286.185,149.792 286.067,151.719 286.873 M355.169 289.063 C 355.169 289.814,355.249 290.122,355.347 289.746 C 355.446 289.370,355.446 288.755,355.347 288.379 C 355.249 288.003,355.169 288.311,355.169 289.063 " stroke="none" fill="#f0f0f0" fill-rule="evenodd"></path><path id="path1" d="M112.695 49.600 C 86.713 50.705,67.240 60.583,54.740 79.000 C 49.814 86.258,46.640 98.175,45.610 113.281 C 44.966 122.725,45.054 317.603,45.708 330.273 C 47.273 360.597,56.662 377.861,77.734 389.166 C 86.380 393.804,102.642 396.772,109.375 394.941 C 110.127 394.737,111.445 394.483,112.305 394.378 C 113.164 394.272,117.119 393.462,121.094 392.578 C 139.554 388.472,153.147 386.470,164.844 386.134 C 166.885 386.076,172.246 385.913,176.758 385.772 C 192.180 385.293,205.300 385.176,250.000 385.124 C 300.572 385.064,307.627 384.797,317.012 382.589 C 318.505 382.238,319.990 381.895,320.313 381.826 C 320.635 381.757,320.898 381.674,320.898 381.641 C 320.898 381.608,321.187 381.525,321.540 381.456 C 325.068 380.771,332.017 376.227,336.757 371.508 C 346.318 361.988,350.784 351.854,353.551 333.398 C 355.399 321.072,356.094 120.186,354.340 105.509 C 350.462 73.079,328.596 53.101,293.555 49.975 C 287.971 49.476,123.610 49.136,112.695 49.600 M249.879 89.654 C 261.175 90.146,268.299 94.068,272.928 102.344 C 277.002 109.630,277.529 113.483,277.196 133.594 C 277.059 141.865,276.913 158.828,276.871 171.289 C 276.715 217.819,276.626 218.912,272.499 225.042 C 269.151 230.015,262.302 233.895,254.688 235.131 C 251.360 235.671,151.955 235.703,147.303 235.166 C 134.723 233.712,126.763 226.579,123.752 214.063 C 122.971 210.816,122.952 209.661,122.903 161.914 L 122.852 113.086 123.733 109.961 C 127.067 98.138,135.495 90.916,147.656 89.462 C 150.294 89.147,242.185 89.320,249.879 89.654 M159.961 102.351 C 148.890 102.530,147.260 102.637,145.703 103.288 C 141.155 105.192,137.896 109.126,136.130 114.844 C 134.796 119.161,135.102 208.551,136.465 212.639 C 137.753 216.505,140.861 219.889,144.374 221.250 C 149.001 223.044,246.116 223.392,253.288 221.641 C 258.102 220.465,261.698 217.505,263.056 213.601 C 263.907 211.156,264.274 193.743,264.511 144.672 L 264.648 116.211 263.761 113.867 C 261.885 108.910,258.020 104.957,253.220 103.086 L 250.977 102.212 211.719 102.180 C 190.127 102.163,166.836 102.239,159.961 102.351 M241.460 124.477 C 242.612 125.264,243.643 126.020,243.750 126.158 C 243.857 126.296,244.623 126.918,245.452 127.540 C 252.393 132.754,251.778 135.063,240.645 145.604 C 236.659 149.378,223.357 162.545,211.085 174.866 C 189.196 196.839,188.742 197.266,187.246 197.266 C 185.097 197.266,184.253 196.558,176.055 187.891 C 168.732 180.147,167.052 178.489,158.858 170.916 C 154.047 166.469,153.125 165.254,153.125 163.359 C 153.125 160.290,161.874 152.326,165.213 152.356 C 166.999 152.372,166.804 152.211,175.995 161.247 C 187.168 172.232,187.274 172.328,187.988 172.054 C 188.332 171.922,193.703 166.422,199.923 159.833 C 206.142 153.243,213.231 145.936,215.674 143.595 C 218.118 141.254,222.402 137.119,225.195 134.407 C 238.497 121.492,237.753 121.946,241.460 124.477 M212.202 265.918 L 212.305 278.711 215.625 275.196 C 217.451 273.262,220.189 270.406,221.708 268.848 L 224.471 266.016 229.228 266.016 C 235.265 266.016,235.355 265.625,227.522 273.438 C 223.620 277.329,221.120 280.115,221.211 280.469 C 221.342 280.974,233.184 298.110,235.228 300.751 C 236.251 302.073,235.936 302.164,230.808 302.028 L 226.265 301.907 220.897 294.704 C 215.155 286.998,215.088 286.941,213.645 288.574 C 212.745 289.593,212.685 289.974,212.500 295.894 L 212.305 302.140 208.123 302.080 C 205.823 302.048,203.758 301.907,203.533 301.769 C 203.077 301.487,202.932 253.839,203.385 253.385 C 203.529 253.242,205.548 253.125,207.872 253.125 L 212.099 253.125 212.202 265.918 M135.405 254.101 C 136.315 254.697,136.352 254.882,136.245 258.319 L 136.133 261.914 128.521 262.109 L 120.908 262.305 120.865 281.836 C 120.841 292.578,120.795 301.587,120.762 301.855 C 120.719 302.214,119.513 302.344,116.215 302.344 L 111.726 302.344 111.625 282.520 L 111.523 262.695 104.231 262.500 C 96.184 262.284,96.594 262.377,96.462 260.742 C 96.142 256.800,96.477 254.275,97.363 253.946 C 99.199 253.267,134.350 253.410,135.405 254.101 M152.262 265.609 C 159.544 266.990,162.812 271.326,163.078 279.956 C 163.210 284.253,163.395 300.564,163.322 301.479 C 163.291 301.860,162.320 301.954,159.277 301.869 L 155.273 301.758 155.154 299.886 L 155.034 298.015 153.894 298.974 C 145.181 306.305,131.870 301.963,131.894 291.797 C 131.915 282.976,142.415 277.846,153.809 281.091 C 154.853 281.388,154.924 280.830,154.246 277.668 C 153.121 272.419,146.690 271.066,142.682 275.234 C 140.495 277.509,133.984 277.786,133.984 275.604 C 133.984 268.772,142.985 263.850,152.262 265.609 M257.031 266.474 C 264.142 268.918,268.657 276.086,263.184 276.241 C 261.841 276.279,259.986 276.348,259.061 276.395 C 257.491 276.475,257.315 276.378,256.401 274.929 C 253.515 270.359,244.922 271.293,244.922 276.177 C 244.922 278.500,246.796 279.696,251.367 280.290 C 264.031 281.934,269.801 288.981,264.931 296.857 C 259.235 306.072,240.277 305.001,236.555 295.254 C 235.255 291.849,235.487 291.619,240.337 291.491 L 244.541 291.380 244.953 292.467 C 246.706 297.095,255.463 297.837,257.270 293.511 C 258.473 290.633,256.552 289.123,250.391 288.102 C 240.281 286.427,236.314 283.254,236.337 276.860 C 236.367 268.183,246.788 262.953,257.031 266.474 M188.513 266.417 C 193.713 268.204,197.029 271.503,196.802 274.666 L 196.680 276.367 193.215 276.481 L 189.751 276.594 188.407 275.024 C 184.653 270.639,176.214 271.912,177.117 276.727 C 177.443 278.464,179.202 279.328,184.761 280.481 C 195.619 282.733,199.869 287.063,197.892 293.863 C 194.429 305.777,172.079 306.277,168.587 294.518 C 167.618 291.256,167.444 291.406,172.190 291.406 L 176.412 291.406 177.600 293.091 C 180.410 297.079,187.094 297.181,188.977 293.266 C 190.353 290.406,188.850 289.274,181.781 287.848 C 171.609 285.795,168.264 283.106,168.193 276.926 C 168.096 268.344,178.483 262.972,188.513 266.417 M275.184 266.011 C 275.910 266.287,276.525 267.119,277.333 268.922 C 278.945 272.514,285.050 287.917,285.374 289.209 C 285.752 290.716,286.058 290.215,287.484 285.742 C 288.841 281.489,294.405 267.293,295.025 266.504 C 295.647 265.712,304.297 265.822,304.297 266.623 C 304.297 266.956,303.078 269.989,301.589 273.361 C 297.844 281.839,296.469 285.293,293.164 294.531 C 286.237 313.888,282.612 318.314,274.506 317.315 C 272.450 317.061,272.491 317.130,272.070 313.241 L 271.833 311.053 274.158 310.810 C 276.973 310.516,278.851 309.475,280.276 307.418 C 282.338 304.443,282.187 303.545,277.942 293.516 C 271.162 277.499,270.363 275.643,268.375 271.289 C 266.136 266.387,266.085 266.132,267.285 265.901 C 269.042 265.562,274.193 265.635,275.184 266.011 M145.038 286.717 C 138.421 288.109,139.429 296.094,146.222 296.094 C 150.264 296.094,153.906 293.169,153.906 289.924 C 153.906 287.385,149.476 285.784,145.038 286.717 " stroke="none" fill="#1e1f1f" fill-rule="evenodd"></path><path id="path2" d="M194.434 49.121 C 198.354 49.184,204.771 49.184,208.691 49.121 C 212.612 49.057,209.404 49.005,201.563 49.005 C 193.721 49.005,190.513 49.057,194.434 49.121 M115.332 49.503 C 116.138 49.588,117.456 49.588,118.262 49.503 C 119.067 49.419,118.408 49.350,116.797 49.350 C 115.186 49.350,114.526 49.419,115.332 49.503 M267.654 49.510 C 269.952 49.579,273.819 49.579,276.248 49.511 C 278.677 49.442,276.797 49.386,272.070 49.385 C 267.344 49.385,265.356 49.441,267.654 49.510 M174.121 89.353 C 175.894 89.426,178.794 89.426,180.566 89.353 C 182.339 89.281,180.889 89.222,177.344 89.222 C 173.799 89.222,172.349 89.281,174.121 89.353 M222.732 89.744 C 225.030 89.813,228.897 89.814,231.326 89.745 C 233.755 89.676,231.875 89.620,227.148 89.620 C 222.422 89.619,220.435 89.675,222.732 89.744 M245.619 89.742 C 246.754 89.821,248.512 89.820,249.525 89.740 C 250.538 89.660,249.609 89.595,247.461 89.596 C 245.313 89.597,244.483 89.662,245.619 89.742 M244.034 101.844 C 244.728 101.931,245.958 101.932,246.769 101.848 C 247.579 101.763,247.012 101.692,245.508 101.691 C 244.004 101.689,243.341 101.758,244.034 101.844 M155.590 102.245 C 158.772 102.311,163.870 102.311,166.918 102.245 C 169.967 102.179,167.363 102.125,161.133 102.126 C 154.902 102.126,152.408 102.180,155.590 102.245 M176.660 102.243 C 178.110 102.318,180.483 102.318,181.934 102.243 C 183.384 102.168,182.197 102.106,179.297 102.106 C 176.396 102.106,175.210 102.168,176.660 102.243 M233.894 102.236 C 234.596 102.323,235.650 102.321,236.237 102.232 C 236.824 102.143,236.250 102.072,234.961 102.074 C 233.672 102.076,233.192 102.149,233.894 102.236 M354.786 112.305 C 354.790 113.164,354.870 113.470,354.964 112.984 C 355.057 112.498,355.054 111.795,354.956 111.421 C 354.858 111.048,354.782 111.445,354.786 112.305 M45.411 115.430 C 45.415 116.289,45.495 116.595,45.589 116.109 C 45.682 115.623,45.679 114.920,45.581 114.546 C 45.483 114.173,45.407 114.570,45.411 115.430 M122.807 119.922 C 122.807 122.607,122.869 123.706,122.945 122.363 C 123.022 121.021,123.022 118.823,122.945 117.480 C 122.869 116.138,122.807 117.236,122.807 119.922 M277.124 126.758 C 277.124 132.559,277.178 134.986,277.245 132.152 C 277.312 129.318,277.312 124.572,277.245 121.605 C 277.179 118.638,277.124 120.957,277.124 126.758 M355.253 136.914 C 355.254 144.219,355.306 147.152,355.371 143.432 C 355.435 139.712,355.435 133.736,355.370 130.151 C 355.306 126.566,355.253 129.609,355.253 136.914 M45.080 131.445 C 45.080 134.883,45.140 136.237,45.213 134.454 C 45.285 132.671,45.285 129.859,45.212 128.204 C 45.139 126.549,45.080 128.008,45.080 131.445 M135.299 130.664 C 135.300 132.813,135.366 133.642,135.445 132.506 C 135.524 131.371,135.523 129.613,135.443 128.600 C 135.363 127.587,135.298 128.516,135.299 130.664 M245.703 127.857 C 245.703 127.924,246.274 128.495,246.973 129.126 L 248.242 130.273 247.095 129.004 C 246.025 127.821,245.703 127.555,245.703 127.857 M227.911 131.738 L 226.367 133.398 228.027 131.854 C 229.571 130.418,229.867 130.078,229.571 130.078 C 229.508 130.078,228.761 130.825,227.911 131.738 M122.842 158.789 C 122.842 174.473,122.890 180.832,122.949 172.920 C 123.008 165.009,123.008 152.177,122.949 144.405 C 122.890 136.633,122.842 143.105,122.842 158.789 M249.700 134.766 C 249.700 135.518,249.780 135.825,249.879 135.449 C 249.977 135.073,249.977 134.458,249.879 134.082 C 249.780 133.706,249.700 134.014,249.700 134.766 M224.389 135.254 L 223.242 136.523 224.512 135.376 C 225.210 134.745,225.781 134.174,225.781 134.107 C 225.781 133.805,225.459 134.071,224.389 135.254 M244.524 141.699 L 240.820 145.508 244.629 141.805 C 246.724 139.768,248.438 138.054,248.438 137.996 C 248.438 137.713,247.963 138.162,244.524 141.699 M264.605 144.336 C 264.606 147.129,264.668 148.220,264.743 146.761 C 264.819 145.302,264.818 143.017,264.742 141.683 C 264.666 140.349,264.604 141.543,264.605 144.336 M212.105 147.168 L 206.055 153.320 212.207 147.270 C 215.591 143.943,218.359 141.174,218.359 141.118 C 218.359 140.839,217.725 141.452,212.105 147.168 M235.135 150.684 L 233.789 152.148 235.254 150.802 C 236.617 149.549,236.898 149.219,236.600 149.219 C 236.535 149.219,235.876 149.878,235.135 150.684 M157.989 156.738 L 156.445 158.398 158.105 156.854 C 159.649 155.418,159.945 155.078,159.650 155.078 C 159.586 155.078,158.839 155.825,157.989 156.738 M200.958 158.691 L 199.414 160.352 201.074 158.807 C 202.618 157.371,202.914 157.031,202.618 157.031 C 202.555 157.031,201.807 157.778,200.958 158.691 M194.120 165.918 L 192.773 167.383 194.238 166.037 C 195.044 165.296,195.703 164.637,195.703 164.572 C 195.703 164.274,195.373 164.555,194.120 165.918 M276.739 179.297 C 276.739 186.924,276.791 190.044,276.855 186.230 C 276.919 182.417,276.919 176.177,276.855 172.363 C 276.791 168.550,276.739 171.670,276.739 179.297 M135.335 182.617 C 135.335 191.641,135.386 195.276,135.449 190.696 C 135.511 186.116,135.511 178.734,135.449 174.290 C 135.386 169.847,135.335 173.594,135.335 182.617 M183.984 169.263 C 183.984 169.330,184.556 169.901,185.254 170.532 L 186.523 171.680 185.376 170.410 C 184.307 169.227,183.984 168.961,183.984 169.263 M214.440 171.387 L 212.305 173.633 214.551 171.498 C 215.786 170.323,216.797 169.313,216.797 169.252 C 216.797 168.962,216.423 169.300,214.440 171.387 M161.523 173.438 C 162.363 174.297,163.137 175.000,163.244 175.000 C 163.352 175.000,162.753 174.297,161.914 173.438 C 161.075 172.578,160.300 171.875,160.193 171.875 C 160.086 171.875,160.684 172.578,161.523 173.438 M264.238 194.531 C 264.238 201.943,264.291 204.976,264.355 201.270 C 264.419 197.563,264.419 191.499,264.355 187.793 C 264.291 184.087,264.238 187.119,264.238 194.531 M176.563 188.477 C 177.291 189.229,177.976 189.844,178.083 189.844 C 178.190 189.844,177.682 189.229,176.953 188.477 C 176.224 187.725,175.540 187.109,175.433 187.109 C 175.325 187.109,175.834 187.725,176.563 188.477 M192.179 193.652 L 188.867 197.070 192.285 193.759 C 195.460 190.683,195.881 190.234,195.597 190.234 C 195.538 190.234,194.000 191.772,192.179 193.652 M181.641 193.872 C 181.641 193.939,182.212 194.511,182.910 195.142 L 184.180 196.289 183.032 195.020 C 181.963 193.836,181.641 193.570,181.641 193.872 M123.138 210.547 C 123.138 211.299,123.218 211.606,123.316 211.230 C 123.414 210.854,123.414 210.239,123.316 209.863 C 123.218 209.487,123.138 209.795,123.138 210.547 M138.672 217.310 C 138.672 217.377,139.243 217.948,139.941 218.579 L 141.211 219.727 140.064 218.457 C 138.994 217.274,138.672 217.008,138.672 217.310 M156.152 222.557 C 158.140 222.628,161.392 222.628,163.379 222.557 C 165.366 222.486,163.740 222.428,159.766 222.428 C 155.791 222.428,154.165 222.486,156.152 222.557 M244.425 222.548 C 245.118 222.634,246.349 222.635,247.159 222.551 C 247.970 222.466,247.402 222.396,245.898 222.394 C 244.395 222.392,243.731 222.461,244.425 222.548 M188.770 222.947 C 190.864 223.018,194.292 223.018,196.387 222.947 C 198.481 222.877,196.768 222.820,192.578 222.820 C 188.389 222.820,186.675 222.877,188.770 222.947 M215.332 222.948 C 217.856 223.016,221.987 223.016,224.512 222.948 C 227.036 222.880,224.971 222.824,219.922 222.824 C 214.873 222.824,212.808 222.880,215.332 222.948 M355.256 240.625 C 355.256 249.326,355.308 252.886,355.371 248.535 C 355.433 244.185,355.433 237.065,355.371 232.715 C 355.308 228.364,355.256 231.924,355.256 240.625 M270.093 227.832 L 268.945 229.102 270.215 227.954 C 270.913 227.323,271.484 226.752,271.484 226.685 C 271.484 226.383,271.162 226.649,270.093 227.832 M168.644 235.438 C 169.337 235.524,170.568 235.526,171.378 235.441 C 172.188 235.357,171.621 235.286,170.117 235.284 C 168.613 235.283,167.950 235.352,168.644 235.438 M45.013 241.797 C 45.013 242.549,45.093 242.856,45.191 242.480 C 45.289 242.104,45.289 241.489,45.191 241.113 C 45.093 240.737,45.013 241.045,45.013 241.797 M45.104 264.063 C 45.104 275.342,45.154 279.956,45.215 274.316 C 45.276 268.677,45.276 259.448,45.215 253.809 C 45.154 248.169,45.104 252.783,45.104 264.063 M98.730 253.791 C 99.214 253.884,100.005 253.884,100.488 253.791 C 100.972 253.698,100.576 253.622,99.609 253.622 C 98.643 253.622,98.247 253.698,98.730 253.791 M111.060 253.808 C 114.457 253.873,119.906 253.873,123.169 253.808 C 126.432 253.742,123.652 253.689,116.992 253.689 C 110.332 253.689,107.662 253.743,111.060 253.808 M120.958 262.012 C 120.858 262.173,123.089 262.259,125.915 262.203 C 135.259 262.019,136.234 261.873,128.636 261.795 C 124.513 261.753,121.058 261.851,120.958 262.012 M250.098 265.504 C 250.474 265.602,251.089 265.602,251.465 265.504 C 251.841 265.405,251.533 265.325,250.781 265.325 C 250.029 265.325,249.722 265.405,250.098 265.504 M269.641 265.913 C 270.668 265.993,272.250 265.992,273.156 265.910 C 274.063 265.829,273.223 265.762,271.289 265.764 C 269.355 265.765,268.614 265.832,269.641 265.913 M229.676 270.996 L 227.148 273.633 229.785 271.105 C 231.235 269.715,232.422 268.528,232.422 268.468 C 232.422 268.181,232.024 268.547,229.676 270.996 M120.865 275.586 C 120.865 279.453,120.923 280.982,120.994 278.984 C 121.065 276.986,121.065 273.822,120.994 271.953 C 120.922 270.084,120.864 271.719,120.865 275.586 M220.291 270.215 L 218.945 271.680 220.410 270.334 C 221.774 269.081,222.055 268.750,221.756 268.750 C 221.691 268.750,221.032 269.409,220.291 270.215 M225.000 275.586 C 224.051 276.553,223.363 277.344,223.470 277.344 C 223.578 277.344,224.442 276.553,225.391 275.586 C 226.339 274.619,227.028 273.828,226.920 273.828 C 226.813 273.828,225.949 274.619,225.000 275.586 M168.067 276.758 C 168.072 277.617,168.152 277.923,168.245 277.437 C 168.338 276.951,168.335 276.248,168.237 275.874 C 168.139 275.501,168.063 275.898,168.067 276.758 M189.409 276.286 C 189.580 276.456,191.286 276.542,193.200 276.478 L 196.680 276.362 192.889 276.169 C 190.804 276.063,189.238 276.116,189.409 276.286 M137.012 276.845 C 137.710 276.932,138.853 276.932,139.551 276.845 C 140.249 276.758,139.678 276.688,138.281 276.688 C 136.885 276.688,136.313 276.758,137.012 276.845 M162.997 280.078 C 162.997 281.045,163.073 281.440,163.166 280.957 C 163.259 280.474,163.259 279.683,163.166 279.199 C 163.073 278.716,162.997 279.111,162.997 280.078 M163.041 287.891 C 163.041 290.576,163.104 291.675,163.180 290.332 C 163.256 288.989,163.256 286.792,163.180 285.449 C 163.104 284.106,163.041 285.205,163.041 287.891 M194.141 283.716 C 194.141 283.783,194.712 284.354,195.410 284.986 L 196.680 286.133 195.532 284.863 C 194.463 283.680,194.141 283.414,194.141 283.716 M264.063 285.742 C 264.791 286.494,265.476 287.109,265.583 287.109 C 265.690 287.109,265.182 286.494,264.453 285.742 C 263.724 284.990,263.040 284.375,262.933 284.375 C 262.825 284.375,263.334 284.990,264.063 285.742 M198.145 291.211 C 198.150 292.070,198.230 292.376,198.323 291.890 C 198.417 291.404,198.413 290.701,198.315 290.327 C 198.217 289.954,198.141 290.352,198.145 291.211 M266.505 291.211 C 266.509 292.070,266.589 292.376,266.683 291.890 C 266.776 291.404,266.772 290.701,266.675 290.327 C 266.577 289.954,266.500 290.352,266.505 291.211 M212.208 291.602 C 212.212 292.461,212.292 292.767,212.386 292.281 C 212.479 291.795,212.476 291.092,212.378 290.718 C 212.280 290.345,212.204 290.742,212.208 291.602 M131.731 291.797 C 131.731 292.549,131.812 292.856,131.910 292.480 C 132.008 292.104,132.008 291.489,131.910 291.113 C 131.812 290.737,131.731 291.045,131.731 291.797 M236.090 291.964 C 235.972 292.270,235.954 292.930,236.049 293.429 C 236.184 294.138,236.233 294.066,236.275 293.099 C 236.304 292.419,236.548 291.773,236.816 291.665 C 237.199 291.511,237.196 291.461,236.804 291.437 C 236.529 291.420,236.207 291.657,236.090 291.964 M182.719 296.370 C 183.205 296.463,183.908 296.460,184.282 296.362 C 184.655 296.264,184.258 296.188,183.398 296.192 C 182.539 296.197,182.233 296.277,182.719 296.370 M263.061 298.926 L 261.914 300.195 263.184 299.048 C 263.882 298.417,264.453 297.846,264.453 297.778 C 264.453 297.477,264.131 297.742,263.061 298.926 M120.815 299.805 C 120.818 300.879,120.894 301.272,120.983 300.678 C 121.073 300.084,121.071 299.206,120.978 298.725 C 120.885 298.245,120.812 298.730,120.815 299.805 M354.839 304.492 C 354.840 307.285,354.902 308.376,354.978 306.917 C 355.053 305.458,355.052 303.173,354.976 301.839 C 354.900 300.505,354.839 301.699,354.839 304.492 M142.871 302.619 C 143.354 302.713,144.146 302.713,144.629 302.619 C 145.112 302.526,144.717 302.450,143.750 302.450 C 142.783 302.450,142.388 302.526,142.871 302.619 M283.771 313.770 L 282.227 315.430 283.887 313.886 C 284.800 313.036,285.547 312.289,285.547 312.225 C 285.547 311.930,285.207 312.226,283.771 313.770 M354.409 323.633 C 354.412 324.707,354.487 325.100,354.577 324.506 C 354.667 323.913,354.665 323.034,354.572 322.553 C 354.479 322.073,354.406 322.559,354.409 323.633 M45.424 327.930 C 45.427 329.004,45.503 329.397,45.593 328.803 C 45.683 328.209,45.680 327.331,45.587 326.850 C 45.495 326.370,45.421 326.855,45.424 327.930 M45.794 335.547 C 45.794 336.299,45.874 336.606,45.972 336.230 C 46.071 335.854,46.071 335.239,45.972 334.863 C 45.874 334.487,45.794 334.795,45.794 335.547 M197.375 385.444 C 198.402 385.525,199.984 385.524,200.891 385.442 C 201.797 385.360,200.957 385.294,199.023 385.295 C 197.090 385.296,196.348 385.363,197.375 385.444 M163.184 386.213 C 163.667 386.306,164.458 386.306,164.941 386.213 C 165.425 386.120,165.029 386.044,164.063 386.044 C 163.096 386.044,162.700 386.120,163.184 386.213 " stroke="none" fill="#6e6e6e" fill-rule="evenodd"></path><path id="path3" d="M171.600 49.119 C 173.275 49.192,175.911 49.192,177.459 49.118 C 179.007 49.044,177.637 48.984,174.414 48.984 C 171.191 48.985,169.925 49.045,171.600 49.119 M223.730 49.111 C 224.429 49.197,225.571 49.197,226.270 49.111 C 226.968 49.024,226.396 48.953,225.000 48.953 C 223.604 48.953,223.032 49.024,223.730 49.111 M235.840 49.104 C 236.323 49.197,237.114 49.197,237.598 49.104 C 238.081 49.011,237.686 48.935,236.719 48.935 C 235.752 48.935,235.356 49.011,235.840 49.104 M62.280 69.238 L 61.133 70.508 62.402 69.361 C 63.586 68.291,63.851 67.969,63.550 67.969 C 63.482 67.969,62.911 68.540,62.280 69.238 M156.759 89.354 C 158.864 89.424,162.204 89.424,164.180 89.353 C 166.157 89.283,164.434 89.225,160.352 89.225 C 156.270 89.226,154.653 89.284,156.759 89.354 M190.937 89.744 C 192.719 89.817,195.532 89.816,197.187 89.743 C 198.841 89.670,197.383 89.611,193.945 89.611 C 190.508 89.612,189.154 89.671,190.937 89.744 M239.941 101.832 C 240.317 101.930,240.933 101.930,241.309 101.832 C 241.685 101.734,241.377 101.653,240.625 101.653 C 239.873 101.653,239.565 101.734,239.941 101.832 M192.676 102.245 C 195.200 102.313,199.331 102.313,201.855 102.245 C 204.380 102.177,202.314 102.121,197.266 102.121 C 192.217 102.121,190.151 102.177,192.676 102.245 M223.127 102.242 C 224.568 102.317,227.029 102.318,228.596 102.244 C 230.163 102.169,228.984 102.108,225.977 102.107 C 222.969 102.107,221.687 102.167,223.127 102.242 M258.594 105.982 C 258.594 106.049,259.165 106.620,259.863 107.251 L 261.133 108.398 259.986 107.129 C 258.916 105.946,258.594 105.680,258.594 105.982 M134.891 122.656 C 134.891 124.053,134.962 124.624,135.048 123.926 C 135.135 123.228,135.135 122.085,135.048 121.387 C 134.962 120.688,134.891 121.260,134.891 122.656 M231.237 128.809 L 229.102 131.055 231.348 128.920 C 232.583 127.745,233.594 126.735,233.594 126.674 C 233.594 126.384,233.220 126.722,231.237 128.809 M276.730 152.734 C 276.730 157.783,276.786 159.849,276.854 157.324 C 276.922 154.800,276.922 150.669,276.854 148.145 C 276.786 145.620,276.730 147.686,276.730 152.734 M238.853 146.973 L 236.914 149.023 238.965 147.085 C 240.093 146.019,241.016 145.096,241.016 145.034 C 241.016 144.743,240.654 145.067,238.853 146.973 M44.643 149.023 C 44.646 150.098,44.722 150.491,44.812 149.897 C 44.901 149.303,44.899 148.424,44.806 147.944 C 44.714 147.463,44.640 147.949,44.643 149.023 M232.031 153.320 C 231.082 154.287,230.394 155.078,230.501 155.078 C 230.609 155.078,231.473 154.287,232.422 153.320 C 233.371 152.354,234.059 151.563,233.952 151.563 C 233.844 151.563,232.980 152.354,232.031 153.320 M264.607 158.398 C 264.608 161.406,264.669 162.585,264.744 161.018 C 264.818 159.451,264.817 156.990,264.742 155.549 C 264.667 154.109,264.607 155.391,264.607 158.398 M169.141 154.789 C 169.141 154.845,172.612 158.316,176.855 162.504 L 184.570 170.117 176.957 162.402 C 169.883 155.234,169.141 154.511,169.141 154.789 M197.656 162.305 C 196.707 163.271,196.019 164.063,196.126 164.063 C 196.234 164.063,197.098 163.271,198.047 162.305 C 198.996 161.338,199.684 160.547,199.577 160.547 C 199.469 160.547,198.605 161.338,197.656 162.305 M44.665 165.430 C 44.667 167.148,44.735 167.803,44.818 166.884 C 44.900 165.965,44.899 164.559,44.815 163.759 C 44.731 162.959,44.664 163.711,44.665 165.430 M219.531 165.820 C 217.931 167.432,216.709 168.750,216.816 168.750 C 216.924 168.750,218.321 167.432,219.922 165.820 C 221.522 164.209,222.744 162.891,222.637 162.891 C 222.529 162.891,221.132 164.209,219.531 165.820 M190.419 170.020 L 187.695 172.852 190.527 170.128 C 192.085 168.630,193.359 167.355,193.359 167.296 C 193.359 167.009,192.949 167.389,190.419 170.020 M165.039 176.563 C 166.531 178.066,167.840 179.297,167.948 179.297 C 168.055 179.297,166.922 178.066,165.430 176.563 C 163.937 175.059,162.628 173.828,162.521 173.828 C 162.414 173.828,163.547 175.059,165.039 176.563 M44.638 176.563 C 44.638 177.529,44.714 177.925,44.807 177.441 C 44.900 176.958,44.900 176.167,44.807 175.684 C 44.714 175.200,44.638 175.596,44.638 176.563 M205.838 179.590 L 204.492 181.055 205.957 179.709 C 207.320 178.456,207.601 178.125,207.303 178.125 C 207.238 178.125,206.579 178.784,205.838 179.590 M44.656 181.250 C 44.656 182.646,44.727 183.218,44.814 182.520 C 44.900 181.821,44.900 180.679,44.814 179.980 C 44.727 179.282,44.656 179.854,44.656 181.250 M172.461 183.984 C 174.170 185.703,175.655 187.109,175.763 187.109 C 175.870 187.109,174.560 185.703,172.852 183.984 C 171.143 182.266,169.657 180.859,169.550 180.859 C 169.442 180.859,170.752 182.266,172.461 183.984 M200.187 185.254 L 196.680 188.867 200.293 185.360 C 203.649 182.102,204.084 181.641,203.800 181.641 C 203.742 181.641,202.116 183.267,200.187 185.254 M44.638 189.063 C 44.638 190.029,44.714 190.425,44.807 189.941 C 44.900 189.458,44.900 188.667,44.807 188.184 C 44.714 187.700,44.638 188.096,44.638 189.063 M44.652 193.164 C 44.654 194.453,44.727 194.933,44.814 194.231 C 44.901 193.529,44.899 192.475,44.810 191.888 C 44.721 191.301,44.650 191.875,44.652 193.164 M180.469 192.383 C 181.198 193.135,181.882 193.750,181.989 193.750 C 182.097 193.750,181.588 193.135,180.859 192.383 C 180.131 191.631,179.446 191.016,179.339 191.016 C 179.232 191.016,179.740 191.631,180.469 192.383 M44.652 199.414 C 44.654 200.703,44.727 201.183,44.814 200.481 C 44.901 199.779,44.899 198.725,44.810 198.138 C 44.721 197.551,44.650 198.125,44.652 199.414 M135.295 204.492 C 135.294 206.426,135.360 207.266,135.442 206.359 C 135.524 205.453,135.525 203.871,135.444 202.844 C 135.363 201.817,135.296 202.559,135.295 204.492 M44.670 205.664 C 44.669 207.598,44.735 208.438,44.817 207.531 C 44.899 206.625,44.900 205.043,44.819 204.016 C 44.738 202.989,44.671 203.730,44.670 205.664 M123.183 206.250 C 123.183 208.076,123.251 208.823,123.333 207.910 C 123.415 206.997,123.415 205.503,123.333 204.590 C 123.251 203.677,123.183 204.424,123.183 206.250 M276.289 210.547 C 276.289 211.729,276.362 212.212,276.452 211.621 C 276.541 211.030,276.541 210.063,276.452 209.473 C 276.362 208.882,276.289 209.365,276.289 210.547 M44.638 216.797 C 44.638 217.764,44.714 218.159,44.807 217.676 C 44.900 217.192,44.900 216.401,44.807 215.918 C 44.714 215.435,44.638 215.830,44.638 216.797 M175.112 222.945 C 176.355 223.023,178.289 223.022,179.409 222.944 C 180.529 222.865,179.512 222.801,177.148 222.802 C 174.785 222.803,173.869 222.868,175.112 222.945 M234.678 222.943 C 235.597 223.025,237.003 223.024,237.803 222.940 C 238.603 222.856,237.852 222.789,236.133 222.790 C 234.414 222.792,233.760 222.860,234.678 222.943 M176.270 235.447 C 177.935 235.520,180.659 235.520,182.324 235.447 C 183.989 235.373,182.627 235.313,179.297 235.313 C 175.967 235.313,174.604 235.373,176.270 235.447 M244.629 235.443 C 245.649 235.524,247.319 235.524,248.340 235.443 C 249.360 235.363,248.525 235.297,246.484 235.297 C 244.443 235.297,243.608 235.363,244.629 235.443 M210.832 253.406 C 211.698 253.565,211.705 253.621,211.820 262.135 L 211.937 270.704 211.926 262.012 L 211.914 253.320 210.938 253.283 C 210.103 253.250,210.088 253.268,210.832 253.406 M130.957 253.795 C 131.548 253.885,132.515 253.885,133.105 253.795 C 133.696 253.706,133.213 253.633,132.031 253.633 C 130.850 253.633,130.366 253.706,130.957 253.795 M203.264 256.836 C 203.262 258.770,203.329 259.610,203.410 258.703 C 203.492 257.797,203.493 256.215,203.413 255.188 C 203.332 254.161,203.265 254.902,203.264 256.836 M136.074 258.203 C 136.074 260.029,136.141 260.776,136.224 259.863 C 136.306 258.950,136.306 257.456,136.224 256.543 C 136.141 255.630,136.074 256.377,136.074 258.203 M102.246 262.392 C 102.944 262.479,104.087 262.479,104.785 262.392 C 105.483 262.305,104.912 262.234,103.516 262.234 C 102.119 262.234,101.548 262.305,102.246 262.392 M227.441 266.295 C 228.032 266.385,228.999 266.385,229.590 266.295 C 230.181 266.206,229.697 266.133,228.516 266.133 C 227.334 266.133,226.851 266.206,227.441 266.295 M297.954 266.292 C 298.440 266.385,299.143 266.382,299.516 266.284 C 299.890 266.186,299.492 266.110,298.633 266.114 C 297.773 266.118,297.468 266.198,297.954 266.292 M355.237 275.000 C 355.237 278.545,355.296 279.995,355.369 278.223 C 355.441 276.450,355.441 273.550,355.369 271.777 C 355.296 270.005,355.237 271.455,355.237 275.000 M249.907 271.761 C 250.393 271.854,251.096 271.851,251.469 271.753 C 251.843 271.655,251.445 271.579,250.586 271.583 C 249.727 271.587,249.421 271.667,249.907 271.761 M181.348 272.144 C 181.724 272.243,182.339 272.243,182.715 272.144 C 183.091 272.046,182.783 271.966,182.031 271.966 C 181.279 271.966,180.972 272.046,181.348 272.144 M211.825 273.438 C 211.825 274.404,211.901 274.800,211.994 274.316 C 212.088 273.833,212.088 273.042,211.994 272.559 C 211.901 272.075,211.825 272.471,211.825 273.438 M203.224 274.023 C 203.228 274.883,203.308 275.188,203.401 274.702 C 203.495 274.217,203.491 273.513,203.393 273.140 C 203.296 272.767,203.219 273.164,203.224 274.023 M196.591 274.609 C 196.591 275.576,196.667 275.972,196.760 275.488 C 196.853 275.005,196.853 274.214,196.760 273.730 C 196.667 273.247,196.591 273.643,196.591 274.609 M134.108 275.360 C 134.147 275.880,134.443 276.377,134.766 276.464 C 135.153 276.568,135.201 276.512,134.908 276.299 C 134.665 276.122,134.369 275.625,134.250 275.195 C 134.081 274.579,134.051 274.614,134.108 275.360 M213.452 288.379 L 212.305 289.648 213.574 288.501 C 214.272 287.870,214.844 287.299,214.844 287.232 C 214.844 286.930,214.521 287.196,213.452 288.379 M168.223 291.699 C 168.123 291.860,169.299 291.944,170.837 291.885 C 175.861 291.694,176.442 291.539,172.386 291.472 C 170.197 291.436,168.323 291.538,168.223 291.699 M239.172 291.694 C 240.199 291.775,241.781 291.774,242.688 291.692 C 243.594 291.610,242.754 291.544,240.820 291.545 C 238.887 291.546,238.145 291.613,239.172 291.694 M176.953 293.091 C 176.953 293.158,177.524 293.729,178.223 294.361 L 179.492 295.508 178.345 294.238 C 177.275 293.055,176.953 292.789,176.953 293.091 M45.013 298.438 C 45.013 299.189,45.093 299.497,45.191 299.121 C 45.289 298.745,45.289 298.130,45.191 297.754 C 45.093 297.378,45.013 297.686,45.013 298.438 M194.311 298.926 L 193.164 300.195 194.434 299.048 C 195.132 298.417,195.703 297.846,195.703 297.778 C 195.703 297.477,195.381 297.742,194.311 298.926 M203.231 299.609 C 203.231 300.576,203.308 300.972,203.401 300.488 C 203.494 300.005,203.494 299.214,203.401 298.730 C 203.308 298.247,203.231 298.643,203.231 299.609 M45.075 305.078 C 45.075 307.979,45.136 309.165,45.212 307.715 C 45.287 306.265,45.287 303.892,45.212 302.441 C 45.136 300.991,45.075 302.178,45.075 305.078 M160.156 301.563 L 157.227 301.812 160.036 301.883 C 161.580 301.921,162.953 301.777,163.086 301.563 C 163.219 301.348,163.273 301.204,163.207 301.242 C 163.140 301.281,161.768 301.425,160.156 301.563 M227.441 301.842 C 228.032 301.932,228.999 301.932,229.590 301.842 C 230.181 301.753,229.697 301.680,228.516 301.680 C 227.334 301.680,226.851 301.753,227.441 301.842 M114.355 302.241 C 115.483 302.320,117.329 302.320,118.457 302.241 C 119.585 302.162,118.662 302.098,116.406 302.098 C 114.150 302.098,113.228 302.162,114.355 302.241 M182.331 303.017 C 183.033 303.104,184.088 303.103,184.675 303.013 C 185.262 302.924,184.688 302.853,183.398 302.855 C 182.109 302.858,181.629 302.931,182.331 303.017 M249.512 303.017 C 250.210 303.104,251.353 303.104,252.051 303.017 C 252.749 302.930,252.178 302.859,250.781 302.859 C 249.385 302.859,248.813 302.930,249.512 303.017 M354.816 317.773 C 354.817 319.277,354.888 319.845,354.973 319.034 C 355.057 318.224,355.056 316.993,354.969 316.300 C 354.883 315.606,354.814 316.270,354.816 317.773 M272.990 316.896 C 273.186 317.093,273.763 317.188,274.271 317.108 C 275.053 316.985,274.998 316.930,273.914 316.750 C 273.137 316.622,272.773 316.679,272.990 316.896 " stroke="none" fill="#949493" fill-rule="evenodd"></path><path id="path4" d="M165.337 49.108 C 165.931 49.198,166.810 49.196,167.291 49.103 C 167.771 49.010,167.285 48.937,166.211 48.940 C 165.137 48.943,164.744 49.019,165.337 49.108 M182.715 49.114 C 183.628 49.196,185.122 49.196,186.035 49.114 C 186.948 49.032,186.201 48.965,184.375 48.965 C 182.549 48.965,181.802 49.032,182.715 49.114 M216.706 49.111 C 217.408 49.198,218.463 49.196,219.050 49.107 C 219.637 49.018,219.062 48.947,217.773 48.949 C 216.484 48.951,216.004 49.024,216.706 49.111 M168.462 89.343 C 169.056 89.433,169.935 89.430,170.416 89.337 C 170.896 89.245,170.410 89.171,169.336 89.174 C 168.262 89.177,167.869 89.253,168.462 89.343 M202.051 89.742 C 203.286 89.819,205.308 89.819,206.543 89.742 C 207.778 89.664,206.768 89.601,204.297 89.601 C 201.826 89.601,200.815 89.664,202.051 89.742 M211.621 89.742 C 212.964 89.819,215.161 89.819,216.504 89.742 C 217.847 89.666,216.748 89.604,214.063 89.604 C 211.377 89.604,210.278 89.666,211.621 89.742 M237.612 89.742 C 238.855 89.820,240.789 89.819,241.909 89.741 C 243.029 89.662,242.012 89.598,239.648 89.599 C 237.285 89.600,236.369 89.664,237.612 89.742 M45.020 124.023 C 45.025 124.883,45.105 125.188,45.198 124.702 C 45.292 124.217,45.288 123.513,45.190 123.140 C 45.092 122.767,45.016 123.164,45.020 124.023 M122.790 127.539 C 122.792 129.258,122.860 129.912,122.943 128.994 C 123.025 128.075,123.024 126.669,122.940 125.869 C 122.856 125.069,122.789 125.820,122.790 127.539 M264.570 151.172 C 264.570 152.354,264.643 152.837,264.733 152.246 C 264.822 151.655,264.822 150.688,264.733 150.098 C 264.643 149.507,264.570 149.990,264.570 151.172 M229.077 156.348 L 227.930 157.617 229.199 156.470 C 229.897 155.839,230.469 155.268,230.469 155.200 C 230.469 154.899,230.146 155.164,229.077 156.348 M225.952 159.473 L 224.805 160.742 226.074 159.595 C 226.772 158.964,227.344 158.393,227.344 158.325 C 227.344 158.024,227.021 158.289,225.952 159.473 M276.680 163.672 C 276.680 164.854,276.753 165.337,276.842 164.746 C 276.932 164.155,276.932 163.188,276.842 162.598 C 276.753 162.007,276.680 162.490,276.680 163.672 M135.247 200.000 C 135.247 200.752,135.327 201.060,135.426 200.684 C 135.524 200.308,135.524 199.692,135.426 199.316 C 135.327 198.940,135.247 199.248,135.247 200.000 M182.129 222.936 C 182.720 223.026,183.687 223.026,184.277 222.936 C 184.868 222.847,184.385 222.773,183.203 222.773 C 182.021 222.773,181.538 222.847,182.129 222.936 M229.987 222.939 C 230.690 223.026,231.744 223.024,232.331 222.935 C 232.918 222.846,232.344 222.775,231.055 222.777 C 229.766 222.779,229.285 222.852,229.987 222.939 M158.515 235.447 C 160.297 235.520,163.110 235.519,164.765 235.446 C 166.419 235.373,164.961 235.314,161.523 235.314 C 158.086 235.315,156.732 235.375,158.515 235.447 M355.212 259.180 C 355.213 260.898,355.282 261.553,355.365 260.634 C 355.447 259.715,355.446 258.309,355.362 257.509 C 355.278 256.709,355.211 257.461,355.212 259.180 M355.195 264.453 C 355.195 265.635,355.268 266.118,355.358 265.527 C 355.447 264.937,355.447 263.970,355.358 263.379 C 355.268 262.788,355.195 263.271,355.195 264.453 M211.809 277.344 C 211.809 278.096,211.890 278.403,211.988 278.027 C 212.086 277.651,212.086 277.036,211.988 276.660 C 211.890 276.284,211.809 276.592,211.809 277.344 M45.082 290.820 C 45.081 294.473,45.140 296.019,45.212 294.257 C 45.284 292.496,45.285 289.507,45.213 287.617 C 45.141 285.726,45.082 287.168,45.082 290.820 M162.981 293.750 C 162.981 294.502,163.062 294.810,163.160 294.434 C 163.258 294.058,163.258 293.442,163.160 293.066 C 163.062 292.690,162.981 292.998,162.981 293.750 M212.252 296.680 C 212.253 298.828,212.319 299.657,212.398 298.522 C 212.477 297.387,212.476 295.629,212.396 294.616 C 212.316 293.603,212.251 294.531,212.252 296.680 M354.799 311.133 C 354.802 312.207,354.878 312.600,354.968 312.006 C 355.058 311.413,355.055 310.534,354.962 310.053 C 354.870 309.573,354.796 310.059,354.799 311.133 " stroke="none" fill="#8b8c8c" fill-rule="evenodd"></path></g></svg>